<?xml version="1.0" encoding="UTF-8" standalone="no"?>
<!DOCTYPE svg PUBLIC "-//W3C//DTD SVG 1.1//EN"
 "http://www.w3.org/Graphics/SVG/1.1/DTD/svg11.dtd">
<!-- Generated by graphviz version 2.38.0 (20140413.2041)
 -->
<!-- Title: %3 Pages: 1 -->
<svg width="454pt" height="283pt"
 viewBox="0.00 0.00 454.00 283.00" xmlns="http://www.w3.org/2000/svg" xmlns:xlink="http://www.w3.org/1999/xlink">
<g id="graph0" class="graph" transform="scale(1 1) rotate(0) translate(4 279)">
<title>%3</title>
<polygon fill="white" stroke="none" points="-4,4 -4,-279 450,-279 450,4 -4,4"/>
<!-- FanqingKong -->
<g id="node1" class="node"><title>FanqingKong</title>
<polygon fill="bisque" stroke="black" points="280.5,-163 225.5,-163 225.5,-127 280.5,-127 280.5,-163"/>
<text text-anchor="middle" x="253" y="-141.3" font-family="Times New Roman,serif" font-size="14.00">孔繁清</text>
</g>
<!-- KunpingWang -->
<g id="node3" class="node"><title>KunpingWang</title>
<polygon fill="#e0eeee" stroke="black" points="389,-164 299,-164 299,-126 389,-126 389,-164"/>
<text text-anchor="middle" x="344" y="-148.8" font-family="Times New Roman,serif" font-size="14.00">王坤坪</text>
<text text-anchor="middle" x="344" y="-133.8" font-family="Times New Roman,serif" font-size="14.00">« 二十四世 »</text>
</g>
<!-- FanqingKong&#45;&gt;KunpingWang -->
<!-- KuntaoWang -->
<g id="node2" class="node"><title>KuntaoWang</title>
<polygon fill="#e0eeee" stroke="black" points="188,-164 98,-164 98,-126 188,-126 188,-164"/>
<text text-anchor="middle" x="143" y="-148.8" font-family="Times New Roman,serif" font-size="14.00">王坤涛</text>
<text text-anchor="middle" x="143" y="-133.8" font-family="Times New Roman,serif" font-size="14.00">« 二十四世 »</text>
</g>
<!-- h1 -->
<g id="node14" class="node"><title>h1</title>
<ellipse fill="none" stroke="black" cx="207" cy="-145" rx="0.5" ry="0.5"/>
</g>
<!-- KuntaoWang&#45;&gt;h1 -->
<g id="edge8" class="edge"><title>KuntaoWang&#45;&gt;h1</title>
<path fill="none" stroke="black" d="M188.5,-145C194.474,-145 200.448,-145 206.422,-145"/>
</g>
<!-- XijunWang -->
<g id="node4" class="node"><title>XijunWang</title>
<polygon fill="bisque" stroke="black" points="306,-45.5 216,-45.5 216,-7.5 306,-7.5 306,-45.5"/>
<text text-anchor="middle" x="261" y="-30.3" font-family="Times New Roman,serif" font-size="14.00">王锡君</text>
<text text-anchor="middle" x="261" y="-15.3" font-family="Times New Roman,serif" font-size="14.00">« 二十五世 »</text>
</g>
<!-- XiqingWang -->
<g id="node5" class="node"><title>XiqingWang</title>
<polygon fill="#e0eeee" stroke="black" points="446,-53 324,-53 324,-0 446,-0 446,-53"/>
<text text-anchor="middle" x="385" y="-37.8" font-family="Times New Roman,serif" font-size="14.00">王锡卿</text>
<text text-anchor="middle" x="385" y="-22.8" font-family="Times New Roman,serif" font-size="14.00">« 二十五世 »</text>
<text text-anchor="middle" x="385" y="-7.8" font-family="Times New Roman,serif" font-size="14.00">1925&#45;08&#45;28 † 1997</text>
</g>
<!-- XijunWang&#45;&gt;XiqingWang -->
<!-- CanwenWang -->
<g id="node6" class="node"><title>CanwenWang</title>
<polygon fill="#e0eeee" stroke="black" points="265,-275 175,-275 175,-237 265,-237 265,-275"/>
<text text-anchor="middle" x="220" y="-259.8" font-family="Times New Roman,serif" font-size="14.00">王灿文</text>
<text text-anchor="middle" x="220" y="-244.8" font-family="Times New Roman,serif" font-size="14.00">« 二十三世 »</text>
</g>
<!-- h0 -->
<g id="node10" class="node"><title>h0</title>
<ellipse fill="none" stroke="black" cx="284" cy="-256" rx="0.5" ry="0.5"/>
</g>
<!-- CanwenWang&#45;&gt;h0 -->
<g id="edge1" class="edge"><title>CanwenWang&#45;&gt;h0</title>
<path fill="none" stroke="black" d="M265.5,-256C271.474,-256 277.448,-256 283.422,-256"/>
</g>
<!-- XihuaWang -->
<g id="node7" class="node"><title>XihuaWang</title>
<polygon fill="#e0eeee" stroke="black" points="198,-45.5 108,-45.5 108,-7.5 198,-7.5 198,-45.5"/>
<text text-anchor="middle" x="153" y="-30.3" font-family="Times New Roman,serif" font-size="14.00">王錫华</text>
<text text-anchor="middle" x="153" y="-15.3" font-family="Times New Roman,serif" font-size="14.00">« 二十五世 »</text>
</g>
<!-- XihuaWang&#45;&gt;XijunWang -->
<!-- XichunWang -->
<g id="node8" class="node"><title>XichunWang</title>
<polygon fill="#e0eeee" stroke="black" points="90,-45.5 0,-45.5 0,-7.5 90,-7.5 90,-45.5"/>
<text text-anchor="middle" x="45" y="-30.3" font-family="Times New Roman,serif" font-size="14.00">王锡椿</text>
<text text-anchor="middle" x="45" y="-15.3" font-family="Times New Roman,serif" font-size="14.00">« 二十五世 »</text>
</g>
<!-- XichunWang&#45;&gt;XihuaWang -->
<!-- ZhangshiWang -->
<g id="node9" class="node"><title>ZhangshiWang</title>
<polygon fill="bisque" stroke="black" points="357.5,-274 302.5,-274 302.5,-238 357.5,-238 357.5,-274"/>
<text text-anchor="middle" x="330" y="-252.3" font-family="Times New Roman,serif" font-size="14.00">王张氏</text>
</g>
<!-- h0&#45;&gt;ZhangshiWang -->
<g id="edge2" class="edge"><title>h0&#45;&gt;ZhangshiWang</title>
<path fill="none" stroke="black" d="M284.719,-256C290.615,-256 296.511,-256 302.407,-256"/>
</g>
<!-- h0_1 -->
<g id="node12" class="node"><title>h0_1</title>
<ellipse fill="none" stroke="black" cx="284" cy="-200.5" rx="0.5" ry="0.5"/>
</g>
<!-- h0&#45;&gt;h0_1 -->
<g id="edge5" class="edge"><title>h0&#45;&gt;h0_1</title>
<path fill="none" stroke="black" d="M284,-254.845C284,-251.777 284,-204.121 284,-201.145"/>
</g>
<!-- h0_0 -->
<g id="node11" class="node"><title>h0_0</title>
<ellipse fill="none" stroke="black" cx="224" cy="-200.5" rx="0.5" ry="0.5"/>
</g>
<!-- h0_0&#45;&gt;KuntaoWang -->
<g id="edge6" class="edge"><title>h0_0&#45;&gt;KuntaoWang</title>
<path fill="none" stroke="black" d="M223.941,-199.961C222.456,-198.971 193.097,-179.398 170.162,-164.108"/>
</g>
<!-- h0_0&#45;&gt;h0_1 -->
<g id="edge3" class="edge"><title>h0_0&#45;&gt;h0_1</title>
<path fill="none" stroke="black" d="M224.938,-200.5C244.317,-200.5 263.697,-200.5 283.077,-200.5"/>
</g>
<!-- h0_2 -->
<g id="node13" class="node"><title>h0_2</title>
<ellipse fill="none" stroke="black" cx="323" cy="-200.5" rx="0.5" ry="0.5"/>
</g>
<!-- h0_1&#45;&gt;h0_2 -->
<g id="edge4" class="edge"><title>h0_1&#45;&gt;h0_2</title>
<path fill="none" stroke="black" d="M284.609,-200.5C297.206,-200.5 309.803,-200.5 322.4,-200.5"/>
</g>
<!-- h0_2&#45;&gt;KunpingWang -->
<g id="edge7" class="edge"><title>h0_2&#45;&gt;KunpingWang</title>
<path fill="none" stroke="black" d="M323.06,-199.845C323.796,-197.952 331.132,-179.089 336.916,-164.216"/>
</g>
<!-- h1&#45;&gt;FanqingKong -->
<g id="edge9" class="edge"><title>h1&#45;&gt;FanqingKong</title>
<path fill="none" stroke="black" d="M207.719,-145C213.615,-145 219.511,-145 225.407,-145"/>
</g>
<!-- h1_2 -->
<g id="node17" class="node"><title>h1_2</title>
<ellipse fill="none" stroke="black" cx="207" cy="-89.5" rx="0.5" ry="0.5"/>
</g>
<!-- h1&#45;&gt;h1_2 -->
<g id="edge15" class="edge"><title>h1&#45;&gt;h1_2</title>
<path fill="none" stroke="black" d="M207,-143.845C207,-140.777 207,-93.121 207,-90.1455"/>
</g>
<!-- h1_0 -->
<g id="node15" class="node"><title>h1_0</title>
<ellipse fill="none" stroke="black" cx="90" cy="-89.5" rx="0.5" ry="0.5"/>
</g>
<!-- h1_0&#45;&gt;XichunWang -->
<g id="edge16" class="edge"><title>h1_0&#45;&gt;XichunWang</title>
<path fill="none" stroke="black" d="M89.9674,-88.9554C89.1051,-87.7769 71.3269,-63.4801 58.3873,-45.7959"/>
</g>
<!-- h1_1 -->
<g id="node16" class="node"><title>h1_1</title>
<ellipse fill="none" stroke="black" cx="153" cy="-89.5" rx="0.5" ry="0.5"/>
</g>
<!-- h1_0&#45;&gt;h1_1 -->
<g id="edge11" class="edge"><title>h1_0&#45;&gt;h1_1</title>
<path fill="none" stroke="black" d="M90.9844,-89.5C111.333,-89.5 131.682,-89.5 152.031,-89.5"/>
</g>
<!-- h1_1&#45;&gt;XihuaWang -->
<g id="edge17" class="edge"><title>h1_1&#45;&gt;XihuaWang</title>
<path fill="none" stroke="black" d="M153,-88.9554C153,-87.7769 153,-63.4801 153,-45.7959"/>
</g>
<!-- h1_1&#45;&gt;h1_2 -->
<g id="edge12" class="edge"><title>h1_1&#45;&gt;h1_2</title>
<path fill="none" stroke="black" d="M153.844,-89.5C171.286,-89.5 188.728,-89.5 206.169,-89.5"/>
</g>
<!-- h1_3 -->
<g id="node18" class="node"><title>h1_3</title>
<ellipse fill="none" stroke="black" cx="261" cy="-89.5" rx="0.5" ry="0.5"/>
</g>
<!-- h1_2&#45;&gt;h1_3 -->
<g id="edge13" class="edge"><title>h1_2&#45;&gt;h1_3</title>
<path fill="none" stroke="black" d="M207.844,-89.5C225.286,-89.5 242.728,-89.5 260.169,-89.5"/>
</g>
<!-- h1_3&#45;&gt;XijunWang -->
<g id="edge18" class="edge"><title>h1_3&#45;&gt;XijunWang</title>
<path fill="none" stroke="black" d="M261,-88.9554C261,-87.7769 261,-63.4801 261,-45.7959"/>
</g>
<!-- h1_4 -->
<g id="node19" class="node"><title>h1_4</title>
<ellipse fill="none" stroke="black" cx="332" cy="-89.5" rx="0.5" ry="0.5"/>
</g>
<!-- h1_3&#45;&gt;h1_4 -->
<g id="edge14" class="edge"><title>h1_3&#45;&gt;h1_4</title>
<path fill="none" stroke="black" d="M261.555,-89.5C284.853,-89.5 308.151,-89.5 331.45,-89.5"/>
</g>
<!-- h1_4&#45;&gt;XiqingWang -->
<g id="edge19" class="edge"><title>h1_4&#45;&gt;XiqingWang</title>
<path fill="none" stroke="black" d="M332.038,-88.9554C332.916,-87.937 348.673,-69.6529 362.773,-53.292"/>
</g>
</g>
</svg>
